<?xml version="1.0" encoding="utf-8"?>
<!-- Generator: Adobe Illustrator 24.0.0, SVG Export Plug-In . SVG Version: 6.00 Build 0)  -->
<svg version="1.1" id="Calque_1" xmlns="http://www.w3.org/2000/svg" xmlns:xlink="http://www.w3.org/1999/xlink" x="0px" y="0px"
	 viewBox="0 0 85 85" style="enable-background:new 0 0 85 85;" xml:space="preserve">
<style type="text/css">
	.st0{fill:#080707;}
</style>
<path class="st0" d="M32.6,36.2c3-3.7,6.5-5.8,10.9-6.4c5.3-0.8,10,1.5,12.6,6.2c1.4,2.4,2.1,5,2.4,7.7c0.5,4.4,0.7,8.8-0.6,13.1
	c-2.3,7.6-7.8,12.2-15.6,12.8c-5,0.4-10-0.3-14.8-2c-1.2-0.4-1.8-0.9-1.8-2.4c0.1-16.3,0-32.5,0-48.8c0-1.9,0-1.9,1.9-1.9
	c1.1,0,2.3,0.1,3.4,0c1.2-0.1,1.4,0.5,1.4,1.5c-0.1,5.7-0.1,11.4-0.1,17.1C32.4,34,32.2,34.9,32.6,36.2z M32.5,53
	c0,2.6,0.1,5.3,0,7.9c-0.1,1.3,0.5,1.9,1.7,2.2c1.8,0.5,3.6,0.9,5.4,1c6,0.4,10.4-2.7,11.8-8.6c0.9-3.8,0.9-7.7,0.3-11.5
	c-0.2-1.5-0.6-2.9-1.3-4.3C48.4,36,45,34.6,41,36.1c-1.1,0.4-2.1,1-3,1.7c-1.8,1.4-3.3,3.1-4.8,4.9c-0.6,0.7-0.8,1.5-0.8,2.4
	C32.5,47.7,32.5,50.4,32.5,53z"/>
</svg>
