<?xml version="1.0" encoding="utf-8"?>
<!-- Generator: Adobe Illustrator 24.0.0, SVG Export Plug-In . SVG Version: 6.00 Build 0)  -->
<svg version="1.1" id="Calque_1" xmlns="http://www.w3.org/2000/svg" xmlns:xlink="http://www.w3.org/1999/xlink" x="0px" y="0px"
	 viewBox="0 0 85 85" style="enable-background:new 0 0 85 85;" xml:space="preserve">
<style type="text/css">
	.st0{fill:#080707;}
</style>
<path class="st0" d="M52.5,30.5c0-4.2,0-8.3,0-12.5c0-3.6,0-3.6,3.6-3.6c1,0,1.9,0,2.8,0c0.7,0.7,0.5,1.4,0.5,2.1
	c0,16.7,0,33.4,0,50.1c0,0.4,0,0.9,0,1.3c0.1,0.8-0.3,1.1-1.1,1.1c-1.6,0-3.2,0-4.9,0c-0.1-2.2-0.3-4.3-0.4-6.8
	c-0.9,1-1.5,1.7-2.1,2.3c-2.8,3-6.1,5-10.3,5.1c-5.6,0.2-9.7-2.2-11.8-7.2c-3.1-7.3-3.4-14.9-0.3-22.3C31,33.9,36,30.7,42.6,30
	c2.7-0.3,5.4-0.3,8.1,0.4C51.2,30.5,51.8,30.4,52.5,30.5z M52.5,46.2c0-2.6,0-5.3,0-7.9c0-1.1-0.4-1.6-1.4-1.9
	c-2.1-0.6-4.3-1.1-6.5-1c-5.3,0.2-9,2.7-10.4,7.4c-1.6,5.3-1.5,10.6,0.2,15.8c1.8,5.6,6.7,7,11.5,3.5c2-1.5,3.6-3.4,5.2-5.3
	c0.9-1.1,1.4-2.3,1.3-3.8C52.4,50.7,52.5,48.5,52.5,46.2z"/>
</svg>
