<?xml version="1.0" encoding="utf-8"?>
<!-- Generator: Adobe Illustrator 24.0.0, SVG Export Plug-In . SVG Version: 6.00 Build 0)  -->
<svg version="1.1" id="Calque_1" xmlns="http://www.w3.org/2000/svg" xmlns:xlink="http://www.w3.org/1999/xlink" x="0px" y="0px"
	 viewBox="0 0 85 85" style="enable-background:new 0 0 85 85;" xml:space="preserve">
<style type="text/css">
	.st0{fill:#F83A3B;}
</style>
<path class="st0" d="M46.1,46c-3.9,0-7.7,0-11.6,0c-2,0-2,0.2-1.9,2.2c0.4,5.1,3.9,8.8,9.2,9.7c4.4,0.8,8.8,0.1,13.1-0.6
	c3-0.5,3-0.5,3,2.5c0,2.4,0,2.5-2.3,3c-4.9,1.1-9.9,1.5-14.9,1c-8-0.9-13-5.4-14.6-13.3c-1-5.2-0.9-10.3,0.9-15.3
	c4-10.9,16.9-15,26.3-8.5c3.5,2.4,5.3,5.8,6.1,9.8c0.6,2.6,0.6,5.2,0.5,7.9c0,1.3-0.5,1.8-1.9,1.8C54,46,50.1,46,46.1,46z
	 M42.5,40.7c2.9,0,5.8,0,8.7,0c1.2,0,1.7-0.4,1.6-1.7c-0.1-6.4-5.3-10.7-11.6-9.8c-5.5,0.8-8,6.1-8.5,10.1c-0.1,1.1,0.4,1.4,1.4,1.4
	C36.9,40.7,39.7,40.7,42.5,40.7z"/>
</svg>
