<?xml version="1.0" encoding="utf-8"?>
<!-- Generator: Adobe Illustrator 24.0.0, SVG Export Plug-In . SVG Version: 6.00 Build 0)  -->
<svg version="1.1" id="Calque_1" xmlns="http://www.w3.org/2000/svg" xmlns:xlink="http://www.w3.org/1999/xlink" x="0px" y="0px"
	 viewBox="0 0 85 85" style="enable-background:new 0 0 85 85;" xml:space="preserve">
<style type="text/css">
	.st0{fill:#080707;}
</style>
<path class="st0" d="M36.3,36.4c0-2.2,0-4.2,0-6.1c0-1.4,0-2.8,0.3-4.2c1.2-6.6,5.2-10.4,12.1-11.3c3.9-0.5,7.7-0.1,11.6,0.5
	c0.9,0.1,1.1,0.6,1.1,1.4c0,1.4,0,2.8,0,4.4c-2.4,0.1-4.6-0.6-6.8-0.8c-1.5-0.1-3-0.1-4.5,0.1c-4.1,0.7-6.4,3.1-6.8,7.2
	c-0.2,2.4,0,4.9-0.1,7.4c-0.1,1.2,0.4,1.5,1.5,1.4c4.4,0,8.8,0,13.2,0c2.4,0,2.3-0.1,2.3,2.3c-0.1,4,0.5,3.4-3.3,3.4
	c-4,0-7.9,0-11.9,0c-1.8,0-1.8,0-1.8,1.9c0,7.6,0,15.1,0,22.7c0,0.6,0,1.2,0,1.8c0,0.8-0.3,1.1-1.1,1.1c-0.2,0-0.4,0-0.5,0
	c-1.7,0-3.8,0.5-4.9-0.3c-1.2-0.9-0.4-3.1-0.4-4.7c-0.1-6.7,0-13.4,0-20.1c0-2.6,0.4-2.5-2.3-2.5c-2.9,0-5.8,0-8.7,0
	c-1.2,0-1.5-0.4-1.5-1.5c-0.2-4.2-0.2-4.2,3.9-4.2C30.4,36.4,33.2,36.4,36.3,36.4z"/>
</svg>
