<?xml version="1.0" encoding="utf-8"?>
<!-- Generator: Adobe Illustrator 24.0.0, SVG Export Plug-In . SVG Version: 6.00 Build 0)  -->
<svg version="1.1" id="Calque_1" xmlns="http://www.w3.org/2000/svg" xmlns:xlink="http://www.w3.org/1999/xlink" x="0px" y="0px"
	 viewBox="0 0 85 85" style="enable-background:new 0 0 85 85;" xml:space="preserve">
<style type="text/css">
	.st0{fill:#080707;}
</style>
<path class="st0" d="M59.2,14.3c0.4,0.8,0.2,1.6,0.2,2.4c0,13.2,0,26.4,0,39.6c0,0.7,0,1.4,0,2.1c-0.3,5.2-3.3,8.9-8.2,10.5
	c-4,1.3-8.2,1.2-12.3,1c-2.6-0.1-5.2-0.5-7.8-1c-1.2-0.2-1.6-0.8-1.6-2c0.1-1.5,0-3,0-4.6c3.2,0.6,6.2,1.3,9.2,1.6
	c3,0.3,6,0.4,8.9-0.3c2.8-0.7,4.5-2.4,4.8-5.3c0.4-3.7,0.1-7.4,0.6-11.1c-1.4,0.1-1.8,1.1-2.4,1.8c-3,3-6.4,4.9-10.7,4.9
	c-5.3,0-9.3-2.3-11.3-7.2c-3.1-7.6-3.2-15.5,0.4-23c2.6-5.5,7.4-8.4,13.4-9.1c2.9-0.3,5.8-0.4,8.6,0.5c1.9,0.6,3.6,0.4,5.4-0.1
	C57.3,14.6,58.2,14.3,59.2,14.3z M52.5,30.8c0-2.6,0-5.3,0-7.9c0-1-0.3-1.6-1.3-1.9c-2.4-0.8-4.8-1.2-7.2-1.1
	c-4.8,0.3-8.1,2.7-9.6,7.3c-1.6,5.2-1.6,10.4,0.1,15.5c1.7,5.3,6.5,6.8,11.1,3.7c2.1-1.4,3.7-3.3,5.3-5.1c1.2-1.4,1.9-2.9,1.7-4.8
	C52.4,34.7,52.5,32.7,52.5,30.8z"/>
</svg>
