<?xml version="1.0" encoding="utf-8"?>
<!-- Generator: Adobe Illustrator 24.0.0, SVG Export Plug-In . SVG Version: 6.00 Build 0)  -->
<svg version="1.1" id="Calque_1" xmlns="http://www.w3.org/2000/svg" xmlns:xlink="http://www.w3.org/1999/xlink" x="0px" y="0px"
	 viewBox="0 0 85 85" style="enable-background:new 0 0 85 85;" xml:space="preserve">
<style type="text/css">
	.st0{fill:#F83A3B;}
</style>
<path class="st0" d="M46.4,47.1c0,4.7,0,9.3,0,14c0,2.5,0,2.5,2.7,2.6c2.4,0,4.8,0.1,7.1,0c1.4,0,1.8,0.5,1.8,1.8
	c-0.1,4.6,0.5,3.9-3.7,3.9c-8.4,0-16.9,0-25.3,0c-2.2,0-2.2,0-2.2-2.1c0-4.2-0.4-3.5,3.5-3.6c2.5,0,4.9,0,7.4,0
	c1.3,0,1.9-0.3,1.9-1.8c0-8,0-16,0-24c0-1.4-0.5-1.8-1.9-1.8c-2.6,0.1-5.3,0-7.9,0c-1.4,0-1.8-0.5-1.8-1.8c0.1-4.6-0.4-3.8,3.7-3.8
	c3.8,0,7.6,0,11.3,0c3.6,0,3.3-0.4,3.3,3.2C46.4,38.2,46.4,42.7,46.4,47.1C46.4,47.1,46.4,47.1,46.4,47.1z"/>
<path class="st0" d="M47.3,19.6c0,2.9-2.5,5.3-5.4,5.3c-2.8,0-5.2-2.4-5.2-5.2c0-3,2.3-5.4,5.3-5.4C44.9,14.3,47.3,16.6,47.3,19.6z"
	/>
</svg>
