<?xml version="1.0" encoding="utf-8"?>
<!-- Generator: Adobe Illustrator 24.0.0, SVG Export Plug-In . SVG Version: 6.00 Build 0)  -->
<svg version="1.1" id="Calque_1" xmlns="http://www.w3.org/2000/svg" xmlns:xlink="http://www.w3.org/1999/xlink" x="0px" y="0px"
	 viewBox="0 0 85 85" style="enable-background:new 0 0 85 85;" xml:space="preserve">
<style type="text/css">
	.st0{fill:#080707;}
</style>
<path class="st0" d="M28.2,69.5c2.6,0.7,4.8,1.8,7.3,2.1c1.3,0.2,2.6,0.3,3.9,0.3c5.1-0.1,8.4-2.9,9.2-8c0.2-1,0.2-2.1,0.2-3.2
	c0-10.2,0-20.4,0-30.6c0-2,0-2-2-2c-4.9,0-9.9,0-14.8,0c-2.1,0-2.2,0.3-2.2-2.1c0-3.4,0-3.4,3.5-3.4c6.8,0,13.6,0,20.3,0
	c1.9,0,2-0.4,2,2c0,12.1,0,24.3,0,36.4c0,2.4-0.3,4.7-1.2,7c-2.4,6.1-7.1,8.9-13.4,9.5c-3.7,0.4-7.4-0.2-10.9-1.2
	c-1.4-0.4-2.1-1-1.9-2.6C28.3,72.5,28.2,71.1,28.2,69.5z"/>
<path class="st0" d="M51.4,6.4c3,0,5.5,2.3,5.5,5.2c0,2.9-2.4,5.4-5.3,5.4c-2.9,0-5.3-2.4-5.3-5.4C46.2,8.8,48.6,6.5,51.4,6.4z"/>
</svg>
