<?xml version="1.0" encoding="utf-8"?>
<!-- Generator: Adobe Illustrator 24.0.0, SVG Export Plug-In . SVG Version: 6.00 Build 0)  -->
<svg version="1.1" id="Calque_1" xmlns="http://www.w3.org/2000/svg" xmlns:xlink="http://www.w3.org/1999/xlink" x="0px" y="0px"
	 viewBox="0 0 85 85" style="enable-background:new 0 0 85 85;" xml:space="preserve">
<style type="text/css">
	.st0{fill:#080707;}
</style>
<path class="st0" d="M26,14.8c2.1-0.3,4.2-0.1,6.5-0.1c0,11,0,21.8,0,32.6c0.9,0.5,1.1-0.2,1.4-0.5c4.9-4.9,9.8-9.9,14.6-14.9
	c0.9-0.9,1.8-1.5,3.2-1.4c2.2,0.1,4.4,0,7,0c-3.1,3.1-5.8,5.8-8.5,8.5c-2.7,2.7-5.4,5.3-8.1,7.9c-1.4,1.4-1.4,1.4-0.1,2.9
	c5.5,6,11,12.1,16.6,18.1c0.3,0.3,0.6,0.6,1.2,1.3c-3.2,0-6,0-8.7,0c-0.9,0-1.3-0.9-1.8-1.4c-4.8-5.5-9.6-11-14.4-16.5
	c-0.6-0.7-1.1-1.5-2-2.1c-0.6,0.6-0.3,1.3-0.3,2c0,5.4,0,10.7,0,16.1c0,1.9,0,2-2,2c-1.5,0-3.4,0.6-4.3-0.3c-1.1-1-0.4-3-0.4-4.5
	c0-15.6,0-31.1,0-46.7C25.8,16.8,25.6,15.8,26,14.8z"/>
</svg>
