<?xml version="1.0" encoding="utf-8"?>
<!-- Generator: Adobe Illustrator 24.0.0, SVG Export Plug-In . SVG Version: 6.00 Build 0)  -->
<svg version="1.1" id="Calque_1" xmlns="http://www.w3.org/2000/svg" xmlns:xlink="http://www.w3.org/1999/xlink" x="0px" y="0px"
	 viewBox="0 0 85 85" style="enable-background:new 0 0 85 85;" xml:space="preserve">
<style type="text/css">
	.st0{fill:#080707;}
</style>
<path class="st0" d="M46.2,15.1c0.3,0.8,0.2,1.7,0.2,2.6c0,14.3,0,28.7,0,43c0,0.6,0.1,1.2,0,1.8c-0.1,1.1,0.4,1.3,1.4,1.3
	c2.8,0,5.6,0,8.4,0c1.4,0,1.8,0.4,1.8,1.8c-0.2,4.7,0.6,3.8-3.6,3.8c-8.4,0.1-16.9,0-25.3,0c-2.4,0-2.2,0.2-2.2-2
	c0.1-4.2-0.6-3.6,3.6-3.6c2.5,0,4.9-0.1,7.4,0c1.4,0.1,1.7-0.5,1.7-1.8c-0.1-7.3,0-14.6,0-21.9c0-6,0-12,0-17.9c0-1.8,0-1.8-1.9-1.9
	c-2.7,0-5.5-0.1-8.2,0c-1.2,0-1.5-0.4-1.5-1.5c0.1-4.9-0.7-3.9,3.7-4c4-0.1,7.9,0,11.9,0C44.5,14.9,45.4,14.7,46.2,15.1z"/>
</svg>
