<?xml version="1.0" encoding="utf-8"?>
<!-- Generator: Adobe Illustrator 24.0.0, SVG Export Plug-In . SVG Version: 6.00 Build 0)  -->
<svg version="1.1" id="Calque_1" xmlns="http://www.w3.org/2000/svg" xmlns:xlink="http://www.w3.org/1999/xlink" x="0px" y="0px"
	 viewBox="0 0 85 85" style="enable-background:new 0 0 85 85;" xml:space="preserve">
<style type="text/css">
	.st0{fill:#080707;}
</style>
<path class="st0" d="M29.4,23.4c0.3,2.2,0,4.1,0.6,6.3c1-1.5,1.8-2.8,2.6-4c1.1-1.6,2.6-2.6,4.5-3c3.4-0.7,6.2,1,7.1,4.3
	c0.3,0.9,0.4,1.9,0.7,2.9c1.1-0.7,1.2-1.9,1.8-2.8c1.3-1.9,2.7-3.7,5.1-4.3c3.4-0.8,6.4,0.5,7.8,3.7c1,2.2,1.3,4.6,1.3,7
	c0.1,8.9,0,17.8,0,26.6c0,1.9,0,1.9-2.1,2c-1.3,0-2.6,0-3.9,0c-0.5-1-0.3-1.9-0.3-2.7c0-8.4,0-16.9,0-25.3c0-1.4,0-2.8-0.5-4.2
	c-0.6-1.7-2-2.2-3.5-1c-0.6,0.5-1.1,1.1-1.5,1.8c-0.8,1.3-1.5,2.8-2.3,4.1c-0.9,1.5-1.2,3-1.2,4.8c0.1,6.9,0,13.7,0,20.6
	c0,2,0,2-2,2c-4.2,0.1-4.2,0.1-4.2-4c0-8.4,0-16.7,0-25.1c0-1.1,0-2.1-0.4-3.1c-0.6-1.7-2-2.2-3.5-1.1c-0.5,0.4-1,1-1.4,1.6
	c-0.7,1.1-1.3,2.3-2,3.4c-1.2,2.1-1.7,4.3-1.7,6.8c0.1,6.6,0,13.2,0.1,19.8c0,1.4-0.3,1.8-1.7,1.8c-4.5,0-4.5,0.1-4.5-4.3
	c0-10.6,0-21.3,0-31.9c0-2.5-0.5-2.6,2.5-2.6C27.7,23.4,28.5,23.4,29.4,23.4z"/>
</svg>
