<?xml version="1.0" encoding="utf-8"?>
<!-- Generator: Adobe Illustrator 24.0.0, SVG Export Plug-In . SVG Version: 6.00 Build 0)  -->
<svg version="1.1" id="Calque_1" xmlns="http://www.w3.org/2000/svg" xmlns:xlink="http://www.w3.org/1999/xlink" x="0px" y="0px"
	 viewBox="0 0 85 85" style="enable-background:new 0 0 85 85;" xml:space="preserve">
<style type="text/css">
	.st0{fill:#080707;}
</style>
<path class="st0" d="M27.3,23.6c0.2-0.1,0.3-0.2,0.5-0.2c1.7,0,3.7-0.5,4.9,0.2c1.2,0.7,0.5,2.9,0.7,4.5c0,0.2,0.1,0.5,0.3,1
	c0.7-0.7,1.2-1.2,1.7-1.7c4-4,8.8-5.7,14.4-4.4c3.3,0.8,5.7,2.6,7.1,5.8c0.9,2.1,1.4,4.3,1.4,6.7c0,8.4,0,16.7,0.1,25.1
	c0,1.2-0.3,1.8-1.6,1.6c-1.6-0.2-3.7,0.7-4.9-0.3c-1.2-1-0.4-3.1-0.4-4.8c-0.1-6.4,0-12.8,0-19.3c0-1.1,0-2.1-0.1-3.2
	c-0.7-5.3-5.3-7.8-10.1-5.3c-3,1.5-5,4.1-7,6.6c-0.5,0.7-0.3,1.5-0.3,2.3c0,7.2,0,14.4,0,21.6c0,2.3,0.3,2.3-2.3,2.2
	c-1.4,0-3.2,0.6-4.1-0.2c-1-1-0.4-2.8-0.4-4.3c0-10.5,0-20.9,0-31.4C27.2,25.3,27,24.4,27.3,23.6z"/>
</svg>
