<?xml version="1.0" encoding="utf-8"?>
<!-- Generator: Adobe Illustrator 24.0.0, SVG Export Plug-In . SVG Version: 6.00 Build 0)  -->
<svg version="1.1" id="Calque_1" xmlns="http://www.w3.org/2000/svg" xmlns:xlink="http://www.w3.org/1999/xlink" x="0px" y="0px"
	 viewBox="0 0 85 85" style="enable-background:new 0 0 85 85;" xml:space="preserve">
<style type="text/css">
	.st0{fill:#F83A3B;}
</style>
<path class="st0" d="M43.2,28.1c0.9-0.5,1.2-1.2,1.5-1.8c3-5.7,11.9-5.8,15.4,0.5c1.7,3,2.5,6.4,2.7,9.8c0.1,1.8,0,3.7,0.1,5.5
	c0.1,1.4-0.5,1.8-1.9,1.8c-4-0.1-8.1,0-12.1,0c-2.5,0-2.5,0-2.4,2.5c0.1,2.1,0.5,4.2,1.3,6.1c1.1,2.6,3,4,5.9,3.9
	c2.1-0.1,4.2-0.3,6.2-1c1.2-0.4,1.7,0,1.6,1.2c-0.2,4.1,1,4.1-4,5.2c-3.1,0.7-6.2,0.9-9.3-0.4c-2.5-1-4.1-2.9-5.5-5.4
	c-0.6,0.9-1.1,1.6-1.6,2.3c-3.8,6-13.1,4.6-15.9-0.3c-0.9-1.5-1.6-3.1-2-4.8c-1.5-6.8-1.6-13.6-0.1-20.4c0.6-2.6,1.7-5,3.3-7.1
	c3.5-4.4,11.8-5.8,15.6,0.9C42.6,27.1,42.9,27.5,43.2,28.1z M39.6,42.3c0-1.5,0.1-3,0-4.5c-0.3-2.7-0.4-5.5-1.8-7.9
	c-1.8-3-5.2-3-7,0c-1,1.6-1.4,3.4-1.6,5.2c-0.7,4.9-0.6,9.8,0,14.7c0.2,1.7,0.7,3.3,1.6,4.7c1.7,2.8,5.1,2.8,6.9,0
	c0.9-1.4,1.3-3,1.6-4.7C39.6,47.4,39.8,44.9,39.6,42.3z M51.5,38.8c1.3,0,2.6,0,3.9,0c0.9,0,1.2-0.4,1.2-1.3c0-2.5-0.3-4.9-1.3-7.2
	c-0.7-1.5-1.8-2.6-3.6-2.6c-1.8,0-2.9,1-3.6,2.6c-1,2.1-1.4,4.3-1.4,6.6c0,1.8,0,1.8,1.9,1.9C49.5,38.9,50.5,38.8,51.5,38.8z"/>
</svg>
