<?xml version="1.0" encoding="utf-8"?>
<!-- Generator: Adobe Illustrator 24.0.0, SVG Export Plug-In . SVG Version: 6.00 Build 0)  -->
<svg version="1.1" id="Calque_1" xmlns="http://www.w3.org/2000/svg" xmlns:xlink="http://www.w3.org/1999/xlink" x="0px" y="0px"
	 viewBox="0 0 85 85" style="enable-background:new 0 0 85 85;" xml:space="preserve">
<style type="text/css">
	.st0{fill:#080707;}
</style>
<path class="st0" d="M32.4,21.5c0.9-1,1.5-1.6,2.1-2.2c3.6-3.5,8-5,13-4.3c4,0.5,6.7,2.8,8.7,6.2c1.3,2.3,2,4.9,2.4,7.5
	c0.5,3.9,0.6,7.9-0.2,11.8c-1.8,8.5-8.2,13.9-16.9,14.3c-2.4,0.1-4.7,0-7.1-0.4c-1.7-0.3-1.8-0.2-1.8,1.5c0,4.7,0,9.3,0,14.3
	c-2,0-3.9,0-5.8,0c-0.6,0-1-0.3-1-0.9c0-0.5,0-1.1,0-1.6c0-16.5,0-33.1,0-49.6c0-0.4,0-0.9,0-1.3c0-0.8,0.3-1.2,1.1-1.2
	c0.2,0,0.4,0,0.5,0c1.4,0.1,3.1-0.5,4.1,0.3c1,0.7,0.3,2.5,0.5,3.7C32.1,20,32.2,20.5,32.4,21.5z M32.5,37.9c0,2.7,0.1,5.5,0,8.2
	c-0.1,1.3,0.5,1.9,1.7,2.2c2,0.5,3.9,1,6,1c5.8,0.1,9.9-3,11.3-8.7c0.9-3.8,0.8-7.7,0.3-11.5c-0.2-1.5-0.6-2.9-1.3-4.3
	c-1.9-3.7-5.4-5.1-9.3-3.6c-0.8,0.3-1.6,0.7-2.3,1.2C36.6,24,34.8,26,33.1,28c-0.6,0.7-0.6,1.4-0.6,2.2
	C32.5,32.8,32.5,35.3,32.5,37.9z"/>
</svg>
