<?xml version="1.0" encoding="utf-8"?>
<!-- Generator: Adobe Illustrator 24.0.0, SVG Export Plug-In . SVG Version: 6.00 Build 0)  -->
<svg version="1.1" id="Calque_1" xmlns="http://www.w3.org/2000/svg" xmlns:xlink="http://www.w3.org/1999/xlink" x="0px" y="0px"
	 viewBox="0 0 85 85" style="enable-background:new 0 0 85 85;" xml:space="preserve">
<style type="text/css">
	.st0{fill:#080707;}
</style>
<path class="st0" d="M33.4,37.3c2,0.3,4.1,0.2,6.2,0c2.6-0.3,4.5-1.9,5.7-4.2c1.6-2.8,3.2-5.7,4.7-8.6c0.6-1.3,1.4-1.8,2.9-1.7
	c1.8,0.1,3.6,0,5.5,0c-2.3,6.1-7.1,13.3-10.9,16.5c0.5,0.9,1.5,0.8,2.3,1.1c6.4,2.6,8.8,9.8,5.3,15.8c-1.3,2.2-3.3,3.4-5.6,4.2
	c-2,0.7-4.1,1.1-6.2,1.1c-5.2,0.1-10.4,0-15.6,0.1c-1.3,0-1.6-0.5-1.6-1.7c0-11.8,0-23.6,0-35.3c0-1.4,0.4-1.9,1.8-1.8
	c1.2,0.1,2.5,0.1,3.7,0c1.2-0.1,1.5,0.4,1.5,1.5c-0.1,3.8,0,7.6,0,11.3C33.2,36.2,33.1,36.7,33.4,37.3z M33.2,49.4
	c0,1.8,0,3.5,0,5.3c0,0.9,0.4,1.2,1.2,1.2c3.2-0.1,6.5,0.2,9.7-0.2c3.7-0.4,5.4-2.6,5.2-6.3c-0.2-3.2-1.8-5.2-5.1-5.8
	c-3.3-0.7-6.6-0.5-10-0.5c-1,0-1.2,0.4-1.2,1.3C33.2,46.1,33.2,47.8,33.2,49.4z"/>
</svg>
