<?xml version="1.0" encoding="utf-8"?>
<!-- Generator: Adobe Illustrator 24.0.0, SVG Export Plug-In . SVG Version: 6.00 Build 0)  -->
<svg version="1.1" id="Calque_1" xmlns="http://www.w3.org/2000/svg" xmlns:xlink="http://www.w3.org/1999/xlink" x="0px" y="0px"
	 viewBox="0 0 85 85" style="enable-background:new 0 0 85 85;" xml:space="preserve">
<style type="text/css">
	.st0{fill:#080707;}
</style>
<path class="st0" d="M54.6,29.2c-3.7-0.6-7-1.4-10.5-1.4c-2,0-4,0-6,0.7c-1.9,0.6-3.3,1.7-3.5,3.8c-0.2,2.2,1,3.5,2.7,4.4
	c2.2,1.2,4.5,1.9,6.9,2.6c2.8,0.9,5.5,1.8,8.1,3.2c6.5,3.4,6.4,12.9,0.4,16.6c-3.5,2.2-7.4,3.1-11.5,3.1c-4.2,0-8.4-0.2-12.6-1.2
	c-0.9-0.2-1.4-0.6-1.3-1.5c0.1-1.6,0-3.1,0-4.9c4.7,1.1,9.2,2,13.7,1.9c2,0,4-0.2,6-0.9c1.7-0.7,3-1.8,3.2-3.8
	c0.2-2.1-0.9-3.5-2.7-4.4c-2.3-1.2-4.9-2-7.4-2.7c-1.9-0.6-3.7-1.2-5.4-2c-1-0.4-1.9-1-2.7-1.6c-5.6-4.2-5.6-11.7,0.1-15.9
	c2.9-2.2,6.4-2.9,9.9-3.1c3.9-0.3,7.7,0.3,11.5,0.9c0.9,0.1,1.2,0.5,1.2,1.4C54.5,25.9,54.6,27.4,54.6,29.2z"/>
</svg>
