<?xml version="1.0" encoding="utf-8"?>
<!-- Generator: Adobe Illustrator 24.0.0, SVG Export Plug-In . SVG Version: 6.00 Build 0)  -->
<svg version="1.1" id="Calque_1" xmlns="http://www.w3.org/2000/svg" xmlns:xlink="http://www.w3.org/1999/xlink" x="0px" y="0px"
	 viewBox="0 0 85 85" style="enable-background:new 0 0 85 85;" xml:space="preserve">
<style type="text/css">
	.st0{fill:#080707;}
</style>
<path class="st0" d="M35.2,34.2c-3.7,0-7.2,0-10.9,0c0-1.6,0-3,0-4.4c0-1,0.5-1.2,1.3-1.2c2.6,0,5.3,0,7.9,0c1.2,0,1.7-0.3,1.7-1.6
	c-0.1-2.5,0-5.1,0-7.6c0-1,0.3-1.6,1.4-1.8c1.7-0.3,3.4-0.8,5.2-1.3c0.4,2.9,0.1,5.7,0.2,8.5c0.1,3.9,0,3.9,3.9,3.9
	c4,0,7.9,0,11.9,0c1.3,0,1.9,0.3,1.8,1.8c-0.1,1.2,0,2.4,0,3.8c-5.9,0-11.6,0-17.2,0c-0.5,1-0.3,1.9-0.3,2.8c0,5.3,0,10.6,0,15.8
	c0,0.8,0,1.6,0.1,2.4c0.3,4.1,2.8,6.6,6.9,6.9c1.8,0.2,3.5,0.1,5.3-0.1c1.6-0.2,3.3-0.5,4.9-0.8c0.1,0.1,0.3,0.3,0.3,0.4
	c0,6.5,1.2,5.1-5.1,6.1c-2.5,0.4-5.1,0.3-7.6,0.1c-7.2-0.7-11.2-5-11.4-12.4c-0.1-6.1,0-12.1-0.1-18.2
	C35.2,36.3,35.2,35.4,35.2,34.2z"/>
</svg>
