<?xml version="1.0" encoding="utf-8"?>
<!-- Generator: Adobe Illustrator 24.0.0, SVG Export Plug-In . SVG Version: 6.00 Build 0)  -->
<svg version="1.1" id="Calque_1" xmlns="http://www.w3.org/2000/svg" xmlns:xlink="http://www.w3.org/1999/xlink" x="0px" y="0px"
	 viewBox="0 0 85 85" style="enable-background:new 0 0 85 85;" xml:space="preserve">
<style type="text/css">
	.st0{fill:#F83A3B;}
</style>
<path class="st0" d="M51.4,55.8c-1,0-1.4,0.9-2,1.5c-3.6,3.5-7.8,5-12.7,4.3c-4.6-0.6-7.6-3.1-9-7.4c-0.6-1.9-0.9-3.9-0.9-6
	c0-7.9,0-15.8,0-23.8c0-2.3,0-2.3,2.3-2.3c4.5-0.1,4.5-0.1,4.5,4.4c0,6.8,0,13.5,0,20.3c0,1.1,0.1,2.3,0.3,3.4c0.9,4.8,5.1,7,9.5,5
	c3.2-1.5,5.4-4.2,7.5-6.9c0.6-0.7,0.4-1.7,0.4-2.6c0-7,0-14.1,0-21.1c0-2.5,0-2.5,2.4-2.5c4.5,0,4.5,0,4.5,4.4c0,10.2,0,20.4,0,30.6
	c0,0.6,0,1.2,0,1.8c-0.1,2-0.1,2-2.1,2c-0.1,0-0.2,0-0.3,0c-3.7,0-3.7,0-3.9-3.7C51.8,56.8,51.9,56.3,51.4,55.8z"/>
</svg>
