<?xml version="1.0" encoding="utf-8"?>
<!-- Generator: Adobe Illustrator 24.0.0, SVG Export Plug-In . SVG Version: 6.00 Build 0)  -->
<svg version="1.1" id="Calque_1" xmlns="http://www.w3.org/2000/svg" xmlns:xlink="http://www.w3.org/1999/xlink" x="0px" y="0px"
	 viewBox="0 0 85 85" style="enable-background:new 0 0 85 85;" xml:space="preserve">
<style type="text/css">
	.st0{fill:#080707;}
</style>
<path class="st0" d="M23.8,22.6c2.1,0,4.2,0,6.4,0c1.1,0,1.1,0.9,1.4,1.6c2.1,5.6,4.2,11.2,6.2,16.8c1.3,3.5,2.5,7.1,3.8,10.7
	c0.2,0.6,0.4,1.1,0.6,1.6c1-0.1,0.9-0.9,1.1-1.4c3.3-9.1,6.6-18.2,9.9-27.2c0.8-2.1,0.8-2.1,3-2.1c1.4,0,2.8,0,4.2,0
	c0.2,0,0.3,0.1,0.5,0.1c0.5,0.5,0.1,1-0.1,1.4c-4.6,11.8-9.3,23.5-13.8,35.3c-0.6,1.5-1.3,2-2.9,1.9c-1.8-0.2-4,0.5-5.4-0.3
	c-1.5-0.8-1.6-3.2-2.2-4.9c-4.2-10.5-8.3-21.1-12.4-31.7C23.9,24,23.4,23.5,23.8,22.6z"/>
</svg>
