<?xml version="1.0" encoding="utf-8"?>
<!-- Generator: Adobe Illustrator 24.0.0, SVG Export Plug-In . SVG Version: 6.00 Build 0)  -->
<svg version="1.1" id="Calque_1" xmlns="http://www.w3.org/2000/svg" xmlns:xlink="http://www.w3.org/1999/xlink" x="0px" y="0px"
	 viewBox="0 0 85 85" style="enable-background:new 0 0 85 85;" xml:space="preserve">
<style type="text/css">
	.st0{fill:#080707;}
</style>
<path class="st0" d="M57,61.6c-0.2,0.1-0.2,0.1-0.3,0.1c-2.5,0-4.9,0-7.4,0c-1.7-1.9-1.9-4.4-2.7-6.7c-1.4-3.8-2.6-7.7-3.9-11.5
	c-0.1-0.3-0.2-0.7-0.6-0.8c-0.6,0.4-0.6,1.2-0.8,1.8c-1.7,5.2-3.5,10.3-5.1,15.5c-0.4,1.3-0.9,1.9-2.4,1.8c-2-0.1-4,0-6.2,0
	c-0.7-4.9-1.4-9.7-2.1-14.4c-1-7-2-14.1-3.1-21.1c-0.1-0.7-0.1-1.4-0.2-2.1c-0.1-0.8,0.2-1.2,1-1.1c0.2,0,0.4,0,0.5,0
	c1.6,0.1,3.6-0.6,4.6,0.3c1,0.9,0.7,3,0.9,4.5c1,8.6,2.1,17.1,3.2,25.8c0.9-0.9,1.2-1.8,1.6-2.8c1.7-5.4,3.5-10.9,5.2-16.3
	c0.4-1.3,0.9-2.2,2.5-1.9c0.4,0.1,0.9,0.1,1.3,0c1.3-0.2,1.8,0.4,2.2,1.6c1.9,5.7,4,11.4,6,17.1c0.3,0.7,0.4,1.5,1.3,2.4
	c0.3-2.8,0.6-5.2,0.9-7.6c0.8-6.9,1.5-13.8,2.3-20.7c0.3-2.4,0.3-2.4,2.9-2.4c0.4,0,0.7,0,1.1,0c3.3,0.1,3.1-0.6,2.6,2.9
	c-1.6,11.6-3.4,23.1-5.1,34.7C57.1,61,57,61.3,57,61.6z"/>
</svg>
