<?xml version="1.0" encoding="utf-8"?>
<!-- Generator: Adobe Illustrator 24.0.0, SVG Export Plug-In . SVG Version: 6.00 Build 0)  -->
<svg version="1.1" id="Calque_1" xmlns="http://www.w3.org/2000/svg" xmlns:xlink="http://www.w3.org/1999/xlink" x="0px" y="0px"
	 viewBox="0 0 85 85" style="enable-background:new 0 0 85 85;" xml:space="preserve">
<style type="text/css">
	.st0{fill:#F83A3B;}
</style>
<path class="st0" d="M24.1,14.5c2.2,0,4.3,0,6.5,0c1.1,0,1.2,1.1,1.5,1.9c1.8,4.8,3.7,9.5,5.5,14.3c1.7,4.5,3.6,9,5,13.6
	c0.1,0.3,0.3,0.6,0.6,1.1c0.8-1,1.1-2.1,1.4-3.1c3-8.4,6-16.9,9-25.3c0.9-2.5,0.9-2.5,3.5-2.5c1.3,0,2.6,0,4,0
	c0.1,0,0.3,0.2,0.5,0.3c0.1,0.9-0.4,1.7-0.7,2.5c-4,10.7-8.1,21.4-12.2,32c-1.4,3.6-3,7.1-5,10.4c-4.2,6.8-10.2,10.3-18.3,9.7
	c-1.9-0.1-1.9-0.1-2-1.9c-0.1-4.1-0.1-4.1,3.9-4.1c3.3,0,6-1.3,8.1-3.8c0.4-0.5,0.8-1,1.1-1.5c2.9-4.2,2.9-4.3,1-9.1
	C33.2,38.5,29,27.8,24.8,17.2C24.5,16.4,23.9,15.7,24.1,14.5z"/>
</svg>
