<?xml version="1.0" encoding="utf-8"?>
<!-- Generator: Adobe Illustrator 24.0.0, SVG Export Plug-In . SVG Version: 6.00 Build 0)  -->
<svg version="1.1" id="Calque_1" xmlns="http://www.w3.org/2000/svg" xmlns:xlink="http://www.w3.org/1999/xlink" x="0px" y="0px"
	 viewBox="0 0 85 85" style="enable-background:new 0 0 85 85;" xml:space="preserve">
<style type="text/css">
	.st0{fill:#080707;}
</style>
<path class="st0" d="M35.9,56.1c4.2,0,8.2,0,12.2,0c2.8,0,5.6,0,8.4,0c1.1,0,1.5,0.3,1.6,1.5c0.2,4.3,0.3,4.3-4,4.3
	c-8.4,0-16.7,0-25.1,0c-0.7,0-1.4,0.1-2.1-0.2c-0.6-2.8,0-5.2,1.9-7.5c6.2-7.7,12.1-15.5,18.1-23.3c0.5-0.6,1-1.1,1.3-2.2
	c-7,0-13.9,0-20.6,0c-0.2-0.3-0.3-0.5-0.3-0.6c0-1.6-0.7-3.5,0.3-4.6c1-1.1,3-0.4,4.5-0.4c7.6,0,15.1,0,22.7,0c2,0,1.9,0,2,2
	c0.2,2.1-0.5,3.8-1.8,5.5c-6.2,7.9-12.3,15.8-18.4,23.8C36.4,54.8,35.9,55.1,35.9,56.1z"/>
</svg>
