<?xml version="1.0" encoding="utf-8"?>
<!-- Generator: Adobe Illustrator 24.0.0, SVG Export Plug-In . SVG Version: 6.00 Build 0)  -->
<svg version="1.1" id="Calque_1" xmlns="http://www.w3.org/2000/svg" xmlns:xlink="http://www.w3.org/1999/xlink" x="0px" y="0px"
	 viewBox="0 0 85 85" style="enable-background:new 0 0 85 85;" xml:space="preserve">
<style type="text/css">
	.st0{fill:#F83A3B;}
</style>
<path class="st0" d="M59.1,30.7c0.4,0.8,0.3,1.6,0.3,2.4c0,11.4,0,22.9,0,34.3c0,0.5,0,1.1,0,1.6c0,0.6-0.4,0.9-1,1
	c-0.2,0-0.4,0-0.5,0c-5.6-0.1-4.4,0.7-4.8-4.2c0-0.6,0.1-1.2-0.4-1.9c-0.8,0.3-1.2,1.1-1.8,1.7c-2.7,2.8-5.8,4.8-9.8,5.1
	C35.4,71,31,68.8,28.8,63.5c-3.3-7.7-3.4-15.6,0.1-23.3c2.5-5.4,6.9-8.3,12.7-9.2c3.2-0.5,6.3-0.5,9.4,0.4c1.9,0.6,3.6,0.4,5.4-0.1
	C57.3,31,58.2,30.6,59.1,30.7z M52.6,47.1c0-2.5-0.1-5.1,0-7.6c0.1-1.3-0.5-1.9-1.7-2.3c-2.2-0.7-4.4-1.1-6.7-1
	c-4.9,0.2-8.2,2.8-9.8,7.4c-1.4,4.1-1.2,8.3-0.7,12.5c0.2,1.3,0.4,2.6,1,3.8c2.3,5.2,6.7,6.4,11.4,3.1c2-1.4,3.4-3.2,5-5.1
	c1.1-1.3,1.6-2.6,1.5-4.3C52.5,51.5,52.6,49.3,52.6,47.1z"/>
<path class="st0" d="M33.6,22.6c-0.5,0-0.8-0.4-1.1-0.7C30,19.5,30,19,32.6,16.6c2.9-2.8,6.3-3.2,10-1.9c1.5,0.5,2.8,1.5,4.2,2.3
	c3,1.9,4.7,1.6,7.1-1.1c0.3-0.4,0.6-0.9,1.1-1.1c4.2,3.2,4,3.1,0.4,6.5c-2.7,2.6-6,2.6-9.4,1.4c-1.4-0.5-2.6-1.4-3.9-2.2
	c-3.3-2.1-5-1.8-7.5,1.2C34.3,22.1,34.1,22.5,33.6,22.6z"/>
</svg>
