<?xml version="1.0" encoding="utf-8"?>
<!-- Generator: Adobe Illustrator 24.0.0, SVG Export Plug-In . SVG Version: 6.00 Build 0)  -->
<svg version="1.1" id="Calque_1" xmlns="http://www.w3.org/2000/svg" xmlns:xlink="http://www.w3.org/1999/xlink" x="0px" y="0px"
	 viewBox="0 0 85 85" style="enable-background:new 0 0 85 85;" xml:space="preserve">
<style type="text/css">
	.st0{fill:#F83A3B;}
</style>
<path class="st0" d="M30.7,69.8c0.4-2.5,1.5-4.7,2.2-7.1c0.6-2,0.6-2-1-3.1c-3.4-2.3-5.6-5.6-6.7-9.5c-1.3-4.9-1.3-9.9,0-14.9
	c2.1-7.9,8.1-12.6,16.3-13c0.4,0,0.9,0,1.3,0c3.7,0,3.7,0,4.9-3.7c0-0.1,0.1-0.2,0.1-0.3c1.3-4.1,1.3-4.1,5.5-3.7
	c1.1,0.1,1.3,0.5,1,1.5c-0.8,2.2-1.4,4.4-2.2,6.5c-0.4,1-0.2,1.6,0.7,2.2c4.6,2.8,6.8,7.2,7.6,12.4c0.8,5.3,0.6,10.5-1.7,15.5
	c-2.7,5.9-7.4,9-13.8,9.7c-1.5,0.2-3,0.2-4.5,0.1c-1.3-0.1-1.9,0.4-2.3,1.6c-0.5,1.6-1.1,3.2-1.6,4.8c-0.3,1-0.8,1.5-1.9,1.4
	C33.4,70,32.1,70.3,30.7,69.8z M44,28.2c-5-1.2-9.6,1-11.5,5.9c-2.1,5.3-2.2,10.8-0.1,16.2c0.6,1.5,1.5,2.9,2.9,3.9
	C36.5,52,43.7,30.5,44,28.2z M49.7,30.5c-0.3,0.3-0.5,0.4-0.5,0.6c-2.7,8-5.4,16-8,24c-0.5,1.4-0.2,1.8,1.3,1.8
	c4.5,0,8.3-1.9,10.1-6.9c1.8-4.9,1.8-9.8,0.2-14.7C52.2,33.4,51.3,31.8,49.7,30.5z"/>
</svg>
