<?xml version="1.0" encoding="utf-8"?>
<!-- Generator: Adobe Illustrator 24.0.0, SVG Export Plug-In . SVG Version: 6.00 Build 0)  -->
<svg version="1.1" id="Calque_1" xmlns="http://www.w3.org/2000/svg" xmlns:xlink="http://www.w3.org/1999/xlink" x="0px" y="0px"
	 viewBox="0 0 85 85" style="enable-background:new 0 0 85 85;" xml:space="preserve">
<style type="text/css">
	.st0{fill:#F83A3B;}
</style>
<path class="st0" d="M61,62.6c0.5,1.6,0.2,3.1,0.2,4.5c0,0.7-0.5,1.1-1.1,1.3c-3.7,1.2-7.3,1.8-11.1,0.7c-3-0.8-5.1-2.7-6.3-5.6
	c-1,0.5-1.3,1.4-1.7,2.2c-3.8,6-12.9,4.6-15.8,0c-1.6-2.6-2.5-5.4-2.9-8.4c-0.7-5.3-0.8-10.7,0.3-16c0.5-2.3,1.2-4.6,2.5-6.6
	c1.6-2.5,3.6-4.2,6.6-4.9c3.9-0.9,7.2,0.2,9.5,3.5c0.6,0.8,1.1,1.6,1.6,2.4c0.8-0.6,1.1-1.5,1.5-2.2c3.4-5.7,12.1-5,15.2,0.6
	c2.2,3.9,2.9,8.1,2.9,12.4c0.1,5.9,0.6,4.8-4.6,4.9c-3.3,0.1-6.7,0-10,0c-1.7,0-1.8,0.2-1.8,1.8c0.1,2.4,0.4,4.7,1.4,6.9
	c1.1,2.5,3,3.8,5.8,3.8C56,63.8,58.5,63.2,61,62.6z M28.4,50.2c0,2.7,0,5.6,0.6,8.4c0.3,1.3,0.7,2.6,1.5,3.6
	c1.9,2.5,5.1,2.4,6.8-0.3c0.7-1.1,1.1-2.4,1.3-3.7c1-5.9,0.9-11.7,0-17.6c-0.2-1.1-0.6-2.2-1.2-3.2c-1.7-2.9-4.9-3.1-6.8-0.3
	c-0.8,1.2-1.2,2.5-1.5,3.9C28.4,44,28.4,46.9,28.4,50.2z M56.2,43c0-1.3-0.3-3.1-1-4.7c-0.7-1.7-1.7-3.1-3.8-3.1c-2,0-3.1,1.3-3.9,3
	c-1,2.1-1,4.4-1.3,6.7c-0.1,1,0.4,1.4,1.4,1.4c2.5,0,4.9,0,7.4,0c1.1,0,1.4-0.5,1.3-1.5C56.3,44.3,56.2,43.9,56.2,43z"/>
<path class="st0" d="M31.4,21.9c-0.2-0.2-0.5-0.4-0.8-0.6c-2.7-2.5-2.7-3.1,0.2-5.7c3-2.7,6.4-2.9,10.1-1.6c1.5,0.5,2.8,1.5,4.1,2.3
	c2.7,1.6,4.4,1.3,6.5-0.9c0.3-0.3,0.6-0.7,0.8-1c0.4-0.5,0.9-0.5,1.3-0.1c0.6,0.5,1.1,1.1,1.7,1.7c0.9,0.8,0.6,1.4,0,2.3
	c-2.8,4-7.3,5.4-11.8,3.5c-1.2-0.5-2.3-1.2-3.4-1.9c-3.4-2.1-5.1-1.9-7.7,1.2C32.2,21.4,31.9,21.8,31.4,21.9z"/>
</svg>
