<?xml version="1.0" encoding="utf-8"?>
<!-- Generator: Adobe Illustrator 24.0.0, SVG Export Plug-In . SVG Version: 6.00 Build 0)  -->
<svg version="1.1" id="Calque_1" xmlns="http://www.w3.org/2000/svg" xmlns:xlink="http://www.w3.org/1999/xlink" x="0px" y="0px"
	 viewBox="0 0 85 85" style="enable-background:new 0 0 85 85;" xml:space="preserve">
<style type="text/css">
	.st0{fill:#F83A3B;}
</style>
<path class="st0" d="M39,39.1c3.7,0,7.4,0,11.1,0c2.5,0,2.5-0.1,2.1-2.6c-0.7-5-3.6-8-8.6-9.1c-3.9-0.8-7.7-0.3-11.6,0.2
	c-1,0.1-1.9,0.4-2.8,0.5c-1.9,0.4-2,0.4-2-1.5c0.1-4.3-0.8-3.8,3.7-4.6c4.8-0.9,9.6-1.3,14.4-0.5c7.4,1.2,12.2,5.9,13.6,13.2
	c0.9,4.8,1,9.6-0.6,14.3C54.2,61.9,42,63.6,33.7,59.7c-5.4-2.5-7.7-7.2-8.5-12.9c-0.3-2-0.1-4-0.2-6.1c0-1.3,0.5-1.7,1.7-1.7
	C30.9,39.1,35,39.1,39,39.1C39,39.1,39,39.1,39,39.1z M42.4,44.4C42.4,44.4,42.4,44.4,42.4,44.4c-1.1,0-2.3,0-3.4,0
	c-1.1,0-2.1,0-3.2,0c-4.3,0-4.3,0-3.2,4.3c1,4,3.3,6.6,7.4,7.3c4.3,0.8,7.8-0.5,10.3-4.2c1.2-1.8,1.7-3.8,2.1-5.9
	c0.2-1.1-0.2-1.4-1.2-1.4C48.2,44.4,45.3,44.4,42.4,44.4z"/>
</svg>
