<?xml version="1.0" encoding="utf-8"?>
<!-- Generator: Adobe Illustrator 24.0.0, SVG Export Plug-In . SVG Version: 6.00 Build 0)  -->
<svg version="1.1" id="Calque_1" xmlns="http://www.w3.org/2000/svg" xmlns:xlink="http://www.w3.org/1999/xlink" x="0px" y="0px"
	 viewBox="0 0 85 85" style="enable-background:new 0 0 85 85;" xml:space="preserve">
<style type="text/css">
	.st0{fill:#F83A3B;}
</style>
<path class="st0" d="M27.3,54.5c3,1.3,5.9,2,9,2.2c8.1,0.5,12.7-4.3,13.7-11.2c0.4-2.6,0.3-5.2-0.3-7.9c-1.3-5.4-5-8.6-10.5-9.1
	c-3.3-0.3-6.5,0.1-9.6,1.3c-0.7,0.3-1.4,0.8-2.5,0.6c0-1.7,0-3.4,0-5.1c0-0.8,0.5-1.1,1.1-1.3c7.1-2.2,14.2-2.6,21,0.9
	c3.5,1.8,5.7,4.9,6.9,8.6c1.8,5.6,1.8,11.2-0.1,16.8c-2,5.8-6.1,9.6-12,11.2c-5,1.3-10.1,1-15.1-0.4c-1.3-0.3-2-1-1.8-2.4
	C27.2,57.5,26.9,56.1,27.3,54.5z"/>
</svg>
