<?xml version="1.0" encoding="utf-8"?>
<!-- Generator: Adobe Illustrator 24.0.0, SVG Export Plug-In . SVG Version: 6.00 Build 0)  -->
<svg version="1.1" id="Calque_1" xmlns="http://www.w3.org/2000/svg" xmlns:xlink="http://www.w3.org/1999/xlink" x="0px" y="0px"
	 viewBox="0 0 85 85" style="enable-background:new 0 0 85 85;" xml:space="preserve">
<style type="text/css">
	.st0{fill:#F83A3B;}
</style>
<path class="st0" d="M27.2,38.8c0-0.7-0.1-1.4-0.1-2c0-4.4,0-4.4,4.4-5.4c3.7-0.8,7.5-1,11.3-0.4c7.6,1.2,12.3,5.6,14,13.1
	c1.1,4.9,1,9.8-0.7,14.5C54,64.7,49.9,68.5,43.8,70c-5,1.3-9.9,0.9-14.9-0.4c-1.3-0.3-2-0.9-1.8-2.4c0.1-1.4,0-2.7,0-4.5
	c3.5,1.5,6.8,2.4,10.3,2.4c1.5,0,3-0.1,4.4-0.6c5.1-1.7,7.5-5.6,8.3-10.6c0.4-2.6,0.4-5.2-0.3-7.9c-1.3-5.5-5.1-8.8-10.8-9.2
	c-3.2-0.2-6.3,0.2-9.3,1.3C29,38.4,28.4,38.9,27.2,38.8z"/>
<path class="st0" d="M47.3,23.6c-1.6,0.1-3-0.3-4.4-1c-1.2-0.6-2.3-1.3-3.4-2c-3-1.8-4.6-1.5-6.9,1c-1.3,1.5-1.3,1.5-2.7,0.1
	c-0.3-0.3-0.6-0.7-0.9-0.9c-0.9-0.7-0.7-1.4-0.1-2.2c2.8-4,7.3-5.4,11.9-3.5c1.4,0.6,2.8,1.5,4.1,2.3c2.7,1.6,4.4,1.4,6.5-1
	c0.3-0.3,0.6-0.7,0.9-1c0.2-0.2,0.5-0.4,0.6-0.4c1.2,0.6,2,1.6,2.9,2.6c0.5,0.6-0.1,1.2-0.5,1.6C53.2,21.9,50.8,23.8,47.3,23.6z"/>
</svg>
