<?xml version="1.0" encoding="utf-8"?>
<!-- Generator: Adobe Illustrator 24.0.0, SVG Export Plug-In . SVG Version: 6.00 Build 0)  -->
<svg version="1.1" id="Calque_1" xmlns="http://www.w3.org/2000/svg" xmlns:xlink="http://www.w3.org/1999/xlink" x="0px" y="0px"
	 viewBox="0 0 85 85" style="enable-background:new 0 0 85 85;" xml:space="preserve">
<style type="text/css">
	.st0{fill:#F83A3B;}
</style>
<path class="st0" d="M33.9,41.9c-0.5-0.9-1.2-0.9-1.7-1.2c-6.1-3.5-6.4-11.6-0.6-15.5c2.1-1.4,4.4-2.1,6.9-2.5
	c6-0.9,11.9-0.5,17.9,0.5c1.4,0.2,1.9,0.9,1.8,2.3c-0.1,1.3,0,2.6,0,4.1c-1.1,0.2-2-0.1-2.9-0.3c-3.9-0.9-7.8-1.4-11.8-1.3
	c-2,0-3.9,0.4-5.7,1.1c-1.8,0.7-2.9,1.9-3.1,3.9c-0.2,2.1,0.8,3.5,2.6,4.5c2.2,1.2,4.7,1.4,7.2,1.5c2.4,0.1,4.8,0.1,7.1,0
	c1.3,0,1.7,0.4,1.7,1.7c-0.1,4.7,0.5,3.9-3.8,4c-2.8,0-5.6-0.1-8.4,0.2c-1.9,0.2-3.8,0.5-5.5,1.6c-3,1.9-3.2,5.7-0.3,7.9
	c2,1.5,4.3,1.9,6.7,2.1c4.6,0.4,9.1,0.1,13.7-0.8c1.1-0.2,2.2-0.4,3.4-0.7c0.4,1.7,0.2,3.3,0.2,4.9c0,1.3-1.1,1.2-1.9,1.4
	c-5.5,1.1-11,1.6-16.5,1.1c-2.7-0.2-5.4-0.7-8-1.7c-4.7-1.8-7.1-5.1-7.1-9.7c0-3.7,1.8-6.4,5.2-7.9C31.8,42.6,32.8,42.3,33.9,41.9z"
	/>
</svg>
