<?xml version="1.0" encoding="utf-8"?>
<!-- Generator: Adobe Illustrator 24.0.0, SVG Export Plug-In . SVG Version: 6.00 Build 0)  -->
<svg version="1.1" id="Calque_1" xmlns="http://www.w3.org/2000/svg" xmlns:xlink="http://www.w3.org/1999/xlink" x="0px" y="0px"
	 viewBox="0 0 85 85" style="enable-background:new 0 0 85 85;" xml:space="preserve">
<style type="text/css">
	.st0{fill:#F83A3B;}
</style>
<path class="st0" d="M58.6,63.2c0.1,0.4,0.3,0.7,0.3,0.9c-0.1,5.7,1.2,4.8-4.8,5.8c-5.9,1-11.9,1.1-17.9,0c-2.1-0.4-4.1-1-5.9-2.1
	c-3.7-2.2-5.5-5.8-4.8-10c0.4-2.8,1.9-4.9,4.4-6.2c1.2-0.6,2.4-1,3.7-1.4c-0.1-0.9-1-0.9-1.5-1.2c-7-3.6-5.9-12.7-0.2-16
	c2-1.2,4.2-1.8,6.5-2.2c6-0.9,11.9-0.5,17.9,0.6c1.2,0.2,1.7,0.7,1.8,2.1c0.1,4.5,0.2,4.5-4.3,3.7c-4.6-0.8-9.2-1.5-13.9-0.6
	c-1,0.2-2,0.5-3,1c-3.1,1.8-3.2,5.8-0.2,7.8c2.3,1.5,5,1.7,7.6,1.8c2.4,0.1,4.8,0.1,7.1,0c1.1,0,1.5,0.3,1.6,1.5
	c0.2,4.2,0.3,4.2-3.9,4.2c-2.7,0-5.5,0.1-8.2,0.2c-1.6,0.1-3.1,0.4-4.6,1c-1.9,0.8-3.3,2-3.5,4.2c-0.1,2.3,1.1,3.8,3,4.9
	c1.8,1,3.8,1.3,5.8,1.5c4.6,0.4,9.1,0,13.7-0.8C56.4,63.6,57.5,63.4,58.6,63.2z"/>
<path class="st0" d="M53.6,14.7c3.7,3.1,4.2,3,0,6.8c-2.6,2.3-5.8,2.3-9,1.2c-1.5-0.5-2.8-1.4-4.2-2.3c-3.2-2-4.9-1.7-7.3,1.1
	c-0.3,0.4-0.6,0.9-1.2,1.1c-0.2-0.1-0.4-0.2-0.6-0.4c-2.9-2.7-2.9-3.3,0-5.9c3-2.7,6.5-3,10.1-1.5c1.5,0.6,2.8,1.5,4.1,2.3
	c2.7,1.6,4.3,1.3,6.5-1C52.6,15.6,52.8,14.9,53.6,14.7z"/>
</svg>
