<?xml version="1.0" encoding="utf-8"?>
<!-- Generator: Adobe Illustrator 24.0.0, SVG Export Plug-In . SVG Version: 6.00 Build 0)  -->
<svg version="1.1" id="Calque_1" xmlns="http://www.w3.org/2000/svg" xmlns:xlink="http://www.w3.org/1999/xlink" x="0px" y="0px"
	 viewBox="0 0 85 85" style="enable-background:new 0 0 85 85;" xml:space="preserve">
<style type="text/css">
	.st0{fill:#080707;}
</style>
<path class="st0" d="M26.7,15.3c2.2-0.2,4.3-0.3,6.6,0.1c0,3.1,0,6,0,9c0,5.1,0,10.2,0,15.3c0,1,0,1.9,0.1,2.9
	c0.6,5.4,5.3,7.9,10,5.4c2.9-1.6,5-4.2,7.1-6.6c0.6-0.7,0.3-1.5,0.3-2.3c0-7.2,0-14.4,0-21.6c0-2-0.5-2.3,2.3-2.2
	c1.4,0,3.2-0.6,4.1,0.3c1.1,1,0.4,2.8,0.4,4.3c0,15.8,0,31.5,0,47.3c0,0.5,0,1.1,0,1.6c0.1,0.9-0.2,1.3-1.2,1.3
	c-1.4-0.1-2.8-0.1-4.2,0c-1.2,0.1-1.5-0.4-1.5-1.5c0.1-6-0.2-12,0.2-17.9c0-0.5,0-1,0-1.7c-1.2,0.1-1.6,1.1-2.2,1.7
	c-3.5,3.4-7.7,4.8-12.6,4.1c-4.2-0.6-7.1-2.8-8.7-6.8c-0.7-1.9-1.1-3.9-1.1-5.9c0-8.5,0-17.1,0-25.6C26.5,15.9,26.6,15.6,26.7,15.3z
	"/>
</svg>
