<?xml version="1.0" encoding="utf-8"?>
<!-- Generator: Adobe Illustrator 24.0.0, SVG Export Plug-In . SVG Version: 6.00 Build 0)  -->
<svg version="1.1" id="Calque_1" xmlns="http://www.w3.org/2000/svg" xmlns:xlink="http://www.w3.org/1999/xlink" x="0px" y="0px"
	 viewBox="0 0 85 85" style="enable-background:new 0 0 85 85;" xml:space="preserve">
<style type="text/css">
	.st0{fill:#080707;}
</style>
<path class="st0" d="M55.7,54.2c0-4.2,0-8.1,0-12.1c0-4.1,0-8.3,0-12.4c0-1.1-0.1-2.3-0.3-3.4c-0.8-6-6.4-6.9-10.1-4.9
	c-2.9,1.6-5,4.1-7,6.7c-0.6,0.8-0.3,1.7-0.3,2.6c0,8.4,0,16.9-0.1,25.3c0,2.6-0.1,5.1-0.9,7.6c-1.2,3.8-3.7,6-7.7,6.6
	c-1.9,0.3-3.8,0.3-5.8,0c-0.9-0.1-1.2-0.5-1.2-1.4c0.1-1.5,0-3,0-4.5c1-0.4,1.8,0,2.7,0.1c3.4,0.3,4.9-0.7,5.7-4c0.5-2,0.5-4,0.5-6
	c0-12.1,0-24.1,0-36.2c0-0.6,0-1.2,0-1.8c0-0.7,0.4-0.9,1-0.9c0.7,0,1.4,0,2.1,0c2.9,0,2.9,0,3,2.9c0,0.3,0,0.5,0,0.8
	c0,0.4,0,0.9,0.5,1.2c0.6,0.3,0.9-0.1,1.3-0.5c1.1-0.9,2.1-1.9,3.2-2.7c4.4-3,9.1-3.2,13.8-1.2c3.8,1.6,5.3,5,5.9,8.8
	c0.3,1.7,0.4,3.5,0.4,5.3c0,7.4,0,14.8,0,22.2c0,2,0,2-2,2.1C59,54.2,57.4,54.2,55.7,54.2z"/>
</svg>
