<?xml version="1.0" encoding="utf-8"?>
<!-- Generator: Adobe Illustrator 24.0.0, SVG Export Plug-In . SVG Version: 6.00 Build 0)  -->
<svg version="1.1" id="Calque_1" xmlns="http://www.w3.org/2000/svg" xmlns:xlink="http://www.w3.org/1999/xlink" x="0px" y="0px"
	 viewBox="0 0 85 85" style="enable-background:new 0 0 85 85;" xml:space="preserve">
<style type="text/css">
	.st0{fill:#080707;}
</style>
<path class="st0" d="M25.6,71.3c2.4,0.2,4.6,0.8,6.8,0.7c3.8-0.1,6-2.1,6.6-5.8c0.2-1.1,0.2-2.3,0.2-3.4c0-13.5,0-26.9,0-40.4
	c0-1.7,0.1-3.3,0.3-5c0.7-6.3,4.9-10.4,11.3-10.9c2.9-0.2,5.8-0.1,8.8,0.7c0,1.9,0,3.7,0,5.8c-2-0.2-3.9-0.7-5.8-0.8
	c-4.6-0.1-6.9,1.8-7.5,6.3c-0.2,1.2-0.2,2.5-0.2,3.7c0,13.5,0,27.1,0,40.6c0,2.1-0.1,4.2-0.7,6.3c-1.4,4.7-4.4,7.4-9.2,8.4
	c-3.1,0.6-6.1,0.4-9.2-0.1c-0.9-0.1-1.4-0.5-1.3-1.5C25.6,74.3,25.6,72.9,25.6,71.3z"/>
</svg>
