<?xml version="1.0" encoding="utf-8"?>
<!-- Generator: Adobe Illustrator 24.0.0, SVG Export Plug-In . SVG Version: 6.00 Build 0)  -->
<svg version="1.1" id="Calque_1" xmlns="http://www.w3.org/2000/svg" xmlns:xlink="http://www.w3.org/1999/xlink" x="0px" y="0px"
	 viewBox="0 0 85 85" style="enable-background:new 0 0 85 85;" xml:space="preserve">
<style type="text/css">
	.st0{fill:#080707;}
</style>
<path class="st0" d="M46.7,22.5c-0.9-0.7-1.8-0.4-2.7-0.4c-4.8,0-9.5,0-14.3,0c-1.8,0-1.8,0-1.8-1.9c0-1.1,0-2.3,0-3.3
	c0.8-0.5,1.5-0.4,2.2-0.4c7.6,0,15.1,0,22.7,0c2.1,0,2-0.2,2.1,2.2c0.1,1.9-0.4,3.3-1.7,4.7c-3.5,3.8-6.8,7.8-10.2,11.8
	c-0.4,0.5-1,0.8-1,1.5c0.4,0.6,1.1,0.5,1.6,0.6c2.4,0.5,4.8,1.3,6.9,2.6c3.6,2.2,5.9,5.2,6.5,9.4c1.1,9.3-3.2,14.7-10.3,17
	c-4.8,1.6-9.7,1.7-14.6,1.3c-0.5,0-1-0.1-1.6-0.2c-3.9-0.3-3.2-0.1-3.3-3.7c0-0.6,0-1.2,0-1.8c0-0.2,0.1-0.3,0.2-0.6
	c2.9,0.2,5.8,0.7,8.8,0.7c2.7,0,5.3-0.2,7.8-1c3.6-1.2,5.6-3.7,5.9-7.6c0.5-6.3-2.2-9.8-8.4-11c-2.1-0.4-4.2-0.5-6.3-0.4
	c-0.9,0-1.3-0.2-1.3-1.2c-0.1-2.1,0.1-3.8,1.7-5.5c3.6-3.9,7-8.1,10.5-12.2C46.6,23,46.6,22.9,46.7,22.5z"/>
</svg>
