<?xml version="1.0" encoding="utf-8"?>
<!-- Uploaded to: SVG Repo, www.svgrepo.com, Generator: SVG Repo Mixer Tools -->
<svg width="800px" height="800px" viewBox="0 0 24 24" id="Layer_1" data-name="Layer 1" xmlns="http://www.w3.org/2000/svg" xmlns:xlink="http://www.w3.org/1999/xlink">
<defs>
<style>.cls-1{fill:none;}.cls-2{clip-path:url(#clip-path);}</style>
<clipPath id="clip-path">
<rect class="cls-1" width="24" height="24"/>
</clipPath>
</defs>
<title>files</title>
<g class="cls-2">
<path d="M10.08,22.47H2.89a1,1,0,0,1-1-1V2.53a1,1,0,0,1,1-1h7.19a1,1,0,0,1,1,1V21.47A1,1,0,0,1,10.08,22.47Zm-6.19-2H9.08V3.53H3.89Z"/>
<path d="M21.11,22.47H13.92a1,1,0,0,1-1-1V2.53a1,1,0,0,1,1-1h7.19a1,1,0,0,1,1,1V21.47A1,1,0,0,1,21.11,22.47Zm-6.19-2h5.19V3.53H14.92Z"/>
<path d="M10,7.16H3.74a1,1,0,0,1,0-2H10a1,1,0,0,1,0,2Z"/>
<path d="M20.78,13.24H14.15a1,1,0,0,1,0-2h6.63a1,1,0,0,1,0,2Z"/>
<path d="M6.48,17.73a1,1,0,0,1-.38-.07,1.07,1.07,0,0,1-.54-.54,1,1,0,0,1-.07-.39,1,1,0,0,1,.29-.7,1,1,0,0,1,.9-.28l.19.06L7,15.9a.93.93,0,0,1,.15.13,1,1,0,0,1,.3.7,1,1,0,0,1-.08.39,1,1,0,0,1-.22.32A1,1,0,0,1,6.48,17.73Z"/>
<path d="M17.52,17.73a1,1,0,0,1-.39-.07,1.07,1.07,0,0,1-.54-.54,1,1,0,0,1-.07-.39,1,1,0,0,1,.29-.7.87.87,0,0,1,.32-.22,1,1,0,0,1,.58-.06l.19.06.17.09a.64.64,0,0,1,.15.13,1,1,0,0,1,.3.7,1,1,0,0,1-.08.39,1,1,0,0,1-.22.32A1,1,0,0,1,17.52,17.73Z"/>
</g>
</svg>