<?xml version="1.0" encoding="utf-8"?>
<!-- Uploaded to: SVG Repo, www.svgrepo.com, Generator: SVG Repo Mixer Tools -->
<svg width="800px" height="800px" viewBox="0 0 24 24" id="Layer_1" data-name="Layer 1" xmlns="http://www.w3.org/2000/svg" xmlns:xlink="http://www.w3.org/1999/xlink">
<defs>
<style>.cls-1{fill:none;}.cls-2{clip-path:url(#clip-path);}</style>
<clipPath id="clip-path">
<rect class="cls-1" x="0.13" width="24" height="24"/>
</clipPath>
</defs>
<title>plant</title>
<g class="cls-2">
<path d="M10.89,12a1,1,0,0,1-.75-.34,1,1,0,0,1-.24-.78c.41-3.27,2.93-9.44,9.56-9.44a1,1,0,0,1,1,.87,9.42,9.42,0,0,1-2,6.84C16.75,11.05,14.22,12,10.89,12Zm7.6-8.51C14.23,4,12.66,7.94,12.13,10a7,7,0,0,0,4.79-2.12A7,7,0,0,0,18.49,3.5Z"/>
<path d="M10.89,12h-.12c-2.51-.32-7.26-2.26-7.26-7.38a1,1,0,0,1,.88-1A7.26,7.26,0,0,1,9.68,5.2,7.33,7.33,0,0,1,11.89,11a1,1,0,0,1-1,1ZM5.6,5.61c.48,2.57,2.76,3.67,4.21,4.12a4.72,4.72,0,0,0-1.44-3A4.81,4.81,0,0,0,5.6,5.61Z"/>
<path d="M10.89,16.18a1,1,0,0,1-1-1V11a1,1,0,1,1,2,0v4.17A1,1,0,0,1,10.89,16.18Z"/>
<path d="M13.55,22.55H8.63a4,4,0,0,1-4-4V15.18a1,1,0,0,1,1-1H16.55a1,1,0,0,1,1,1v3.37A4,4,0,0,1,13.55,22.55ZM6.63,16.18v2.37a2,2,0,0,0,2,2h4.92a2,2,0,0,0,2-2V16.18Z"/>
</g>
</svg>