<?xml version="1.0" encoding="utf-8"?>
<!-- Generator: Adobe Illustrator 24.0.0, SVG Export Plug-In . SVG Version: 6.00 Build 0)  -->
<svg version="1.1" id="Calque_1" xmlns="http://www.w3.org/2000/svg" xmlns:xlink="http://www.w3.org/1999/xlink" x="0px" y="0px"
	 viewBox="0 0 10 10" style="enable-background:new 0 0 10 10;" xml:space="preserve">
<style type="text/css">
	.st0{display:none;}
	.st1{display:inline;}
</style>
<g id="Calque_1_1_" class="st0">
	<g id="Calque_3" class="st1">
		<polygon id="_x31_0_2_" points="10,8.9 8.7,9.2 7.4,8.9 5.1,5.8 2.3,9.5 1.6,10 0.6,10 0,9 1,7.4 1.2,2.4 0,1.1 0.6,0 1.9,0 
			2.9,0.9 2.7,1.6 2.5,5.8 5.1,3.8 7.8,7.1 9,7.1 9.9,7.7 		"/>
	</g>
	<g id="Calque_2_1_" class="st1">
		<polygon points="10,10 8,10 5,7 2,10 0,10 0,8 1,7 1,1 0,1 0,0 1,0 3,0 3,5.6 5,4 9,8 10,8 		"/>
	</g>
</g>
<g id="Calque_2_2_">
	<g id="Calque_3_1_">
		<polygon points="5,5 8,7 8,0 10,0 10,10 8,10 5,8 2,10 0,10 0,8.5 		"/>
	</g>
</g>
</svg>
