<?xml version="1.0" encoding="utf-8"?>
<!-- Generator: Adobe Illustrator 24.0.0, SVG Export Plug-In . SVG Version: 6.00 Build 0)  -->
<svg version="1.1" xmlns="http://www.w3.org/2000/svg" xmlns:xlink="http://www.w3.org/1999/xlink" x="0px" y="0px"
	 viewBox="0 0 10 10" style="enable-background:new 0 0 10 10;" xml:space="preserve">
<style type="text/css">
	.st0{display:none;}
	.st1{display:inline;}
</style>
<g id="Calque_1" class="st0">
	<g id="Calque_3">
		<polygon class="st1" points="0,0 0,10 2.2,10 2.2,5.7 7.6,5.7 7.6,10 10,10 10,0 7.7,0 7.6,3.5 2.2,3.5 2.2,0 		"/>
	</g>
	<g id="Calque_2_1_" class="st1">
		<polygon points="5,0 5,1.5 8,4 5,6.5 2,4 5,1.5 5,0 0,4 4,7.5 1,10 3,10 5,8.2 7,10 9,10 6,7.5 10,4 		"/>
	</g>
</g>
<g id="Calque_2">
	<polygon points="0,10 0,8 8,8 8,5 0,5 0,0 2,0 2,3 8,3 8,0 10,0 10,10 	"/>
</g>
</svg>
