<?xml version="1.0" encoding="utf-8"?>
<!-- Generator: Adobe Illustrator 24.0.0, SVG Export Plug-In . SVG Version: 6.00 Build 0)  -->
<svg version="1.1" xmlns="http://www.w3.org/2000/svg" xmlns:xlink="http://www.w3.org/1999/xlink" x="0px" y="0px"
	 viewBox="0 0 10 10" style="enable-background:new 0 0 10 10;" xml:space="preserve">
<style type="text/css">
	.st0{display:none;}
	.st1{display:inline;}
</style>
<g id="Calque_1" class="st0">
	<g id="Calque_2_1_">
		<polygon id="_x38__2_" class="st1" points="0,1.3 6.1,0 9,0.2 5.8,2.9 10,4.2 10,7.4 5.9,10 4.5,9.1 2.6,8 3.7,5.6 5.7,5.8 
			5.7,6.9 4.2,7 5.2,8 8.2,7.1 8.4,5.1 3.2,3.5 5.8,1.2 0,2.6 		"/>
	</g>
	<g id="Calque_3" class="st1">
		<polygon points="10,10 0,10 0,8.5 4,7 0,4 0,0 10,0 10,5.4 6,5.3 6,4 8,4 8,1.5 2,1.5 2,3 7,7 4,8.5 10,8.5 		"/>
	</g>
</g>
<g id="Calque_2">
	<polygon points="0,10 0,3 5,3 5,0 7,0 7,3 10,3 10,5 7,5 7,10 2,10 2,8 5,8 5,5 2,5 2,10 	"/>
</g>
</svg>
