<?xml version="1.0" encoding="utf-8"?>
<!-- Generator: Adobe Illustrator 24.0.0, SVG Export Plug-In . SVG Version: 6.00 Build 0)  -->
<svg version="1.1" xmlns="http://www.w3.org/2000/svg" xmlns:xlink="http://www.w3.org/1999/xlink" x="0px" y="0px"
	 viewBox="0 0 5 5" style="enable-background:new 0 0 5 5;" xml:space="preserve">
<style type="text/css">
	.st0{display:none;}
	.st1{display:inline;}
</style>
<g id="Calque_1" class="st0">
	<g id="Calque_1_1_">
		<polygon class="st1" points="0,5 0,4 4,4 4,2.5 0,2.5 0,0 1,0 1,1.5 4,1.5 4,0 5,0 5,5 		"/>
	</g>
	<g id="Calque_2_2_" class="st1">
		<g id="Calque_2_1_">
			<polygon points="2.5,0 2.5,1 3.8,2 2.5,3 1.3,2 2.5,1 2.5,0 0,2 1.9,3.5 0,5 1.5,5 2.5,4.1 3.5,5 5,5 3.1,3.5 5,2 			"/>
		</g>
	</g>
</g>
<g id="Calque_2">
	<polygon points="5,0 5,3.5 2.5,3.5 2.5,5 1.5,5 1.5,3.5 0,3.5 0,2.5 1.5,2.5 1.5,0 4,0 4,1 2.5,1 2.5,2.5 4,2.5 4,0 	"/>
</g>
</svg>
