<?xml version="1.0" encoding="utf-8"?>
<!-- Generator: Adobe Illustrator 24.0.0, SVG Export Plug-In . SVG Version: 6.00 Build 0)  -->
<svg version="1.1" xmlns="http://www.w3.org/2000/svg" xmlns:xlink="http://www.w3.org/1999/xlink" x="0px" y="0px"
	 viewBox="0 0 5 5" style="enable-background:new 0 0 5 5;" xml:space="preserve">
<style type="text/css">
	.st0{display:none;}
	.st1{display:inline;}
	.st2{display:inline;fill:none;}
	.st3{fill:#010200;}
</style>
<g id="Calque_1" class="st0">
	<polygon class="st1" points="3,0 0,0 0,5 1,5 1,1 2,1 2,4 1,4 1,5 3,5 3,4 5,4 5,3 3,3 3,2 5,2 5,1 3,1 	"/>
	<line class="st2" x1="3" y1="4" x2="3" y2="5"/>
</g>
<g id="Calque_2">
	<polygon class="st3" points="0,0 5,0 5,5 0,5 0,2.5 2,2.5 2.5,3 3,2.5 2.5,2 2,2.5 0,2.5 0,1 1,1 1,2.5 2.5,1 4,2.5 2.5,4 1,2.5 
		1,4 4,4 4,1 0,1 	"/>
</g>
</svg>
